<svg width="612" height="583" viewBox="0 0 612 583" fill="none" xmlns="http://www.w3.org/2000/svg">
<path d="M214.301 409.186C212.103 415.53 208.317 419.264 202.941 420.388C191.824 422.706 184.773 416.703 181.787 402.378C181.289 400.066 180.988 397.717 180.888 395.355C182.969 393.279 185.836 391.843 189.477 391.08C194.606 390.017 199.429 391.843 203.801 396.531L204.185 396.949C207.012 394.614 209.924 392.069 212.893 389.299C215.72 386.658 218.35 384.051 220.776 381.512L226.317 368.032L226.125 367.964C223.431 364.148 219.948 360.956 215.913 358.605C208.094 354.082 199.117 352.87 188.98 354.969C176.208 357.638 166.552 364.168 160.011 374.557C157.4 378.668 155.49 383.183 154.357 387.919C148.329 397.939 146.536 409.141 149.064 421.236C151.659 433.676 158.111 443.453 168.188 450.238C175.347 455.14 183.826 457.751 192.503 457.725C195.976 457.703 199.438 457.324 202.834 456.594C213.136 454.445 221.109 449.543 226.532 442.028C229.433 438.013 232.068 430.526 232.826 426.003L232.91 425.505H232.848C234.489 422.635 235.629 419.507 236.218 416.254L214.301 409.186ZM224.547 369.49L220.25 381.365H220.188C215.375 385.606 210.224 390.101 205.361 394.371L209.319 382.926L224.547 369.49ZM194.012 377.661C199.113 376.598 203.838 378.236 208.188 382.575L203.891 394.976C199.418 390.537 194.487 388.841 189.223 389.937C186.163 390.489 183.293 391.808 180.882 393.771C181.029 384.854 185.395 379.465 194.029 377.661H194.012ZM225.565 441.372C220.323 448.644 212.588 453.388 202.579 455.508C190.139 458.098 178.796 456.006 168.815 449.288C158.988 442.684 152.717 433.173 150.184 421.015C148.006 410.418 149.137 400.557 153.661 391.572C152.889 397.132 153.107 402.785 154.306 408.27C156.884 420.634 163.176 430.179 173.181 436.905C183.359 443.739 194.763 445.839 207.391 443.204C217.592 441.074 225.373 436.296 230.733 428.869C230.886 428.655 231.027 428.44 231.169 428.231C230.089 432.409 227.9 438.154 225.582 441.372H225.565Z" fill="#4670CF"/>
<path d="M192.503 458.268C183.717 458.289 175.131 455.647 167.877 450.69C157.665 443.826 151.151 433.953 148.521 421.349C145.983 409.157 147.769 397.843 153.842 387.71C154.996 382.945 156.924 378.403 159.548 374.263C166.141 363.791 176.003 357.124 188.867 354.438C199.091 352.306 208.285 353.55 216.19 358.136C220.24 360.499 223.743 363.692 226.47 367.506L221.16 382.4C218.612 384.812 215.973 387.248 213.244 389.706C210.311 392.344 207.408 394.895 204.536 397.356L204.134 397.707L203.422 396.904C199.192 392.38 194.544 390.588 189.613 391.617C186.221 392.329 183.461 393.658 181.465 395.575C181.571 397.82 181.856 400.053 182.319 402.253C185.265 416.35 191.971 422.101 202.828 419.839C207.974 418.765 211.661 415.117 213.787 408.993L213.962 408.49L236.807 415.841L236.728 416.31C236.157 419.521 235.062 422.616 233.488 425.471L233.386 426.07C232.577 430.735 229.897 438.284 226.973 442.339C221.471 449.967 213.402 454.943 202.947 457.12C199.514 457.859 196.014 458.243 192.503 458.268ZM154.267 389.14C148.753 398.809 147.181 409.559 149.59 421.123C152.163 433.438 158.519 443.085 168.482 449.786C175.558 454.62 183.933 457.196 192.503 457.176C195.937 457.162 199.361 456.796 202.721 456.085C212.899 453.964 220.748 449.135 226.091 441.734C228.868 437.877 231.446 430.679 232.26 426.116L231.695 428.377C230.638 432.471 228.415 438.386 226.04 441.7C220.708 449.085 212.865 453.902 202.715 456.023C190.151 458.646 178.649 456.526 168.539 449.729C158.587 443.045 152.242 433.416 149.675 421.117C147.447 410.435 148.629 400.415 153.181 391.34L154.267 389.14ZM152.757 394.868C149.488 402.898 148.799 411.634 150.732 420.879C153.237 432.89 159.429 442.288 169.138 448.807C178.994 455.435 190.213 457.493 202.5 454.937C212.373 452.879 219.996 448.202 225.158 441.044C226.951 438.561 228.658 434.524 229.812 430.967C224.457 437.47 216.965 441.756 207.516 443.73C194.787 446.387 183.133 444.239 172.893 437.351C162.811 430.566 156.381 420.828 153.78 408.371C152.829 403.938 152.484 399.395 152.757 394.868ZM154.662 388.462L154.199 391.651C153.439 397.147 153.654 402.734 154.832 408.157C157.371 420.32 163.648 429.842 173.492 436.43C183.484 443.147 194.855 445.239 207.284 442.65C217.304 440.563 225.045 435.808 230.298 428.513C230.394 428.383 230.479 428.253 230.57 428.117L232.159 425.799H232.08L232.407 425.233C233.916 422.554 234.987 419.65 235.58 416.633L214.658 409.876C212.396 416.096 208.477 419.805 203.077 420.93C191.66 423.317 184.326 417.113 181.273 402.496C180.773 400.156 180.468 397.779 180.363 395.388V395.151L180.532 394.981C182.692 392.821 185.672 391.334 189.393 390.559C194.714 389.429 199.696 391.328 204.197 396.141L208.879 382.615L225.475 367.964C222.858 364.35 219.515 361.324 215.659 359.08C207.997 354.63 199.062 353.426 189.082 355.507C176.523 358.125 166.893 364.633 160.47 374.845C157.892 378.907 156.002 383.366 154.877 388.043L154.815 388.201C154.792 388.286 154.713 388.377 154.662 388.462ZM204.174 396.129C204.18 396.141 204.19 396.151 204.202 396.157V396.191C206.979 393.777 209.772 391.323 212.509 388.891C214.545 387.087 216.648 385.21 218.78 383.288C216.739 385.086 214.646 386.918 212.56 388.75C210.253 390.774 207.946 392.793 205.701 394.772L204.174 396.129ZM209.789 383.231L206.549 392.584L211.859 387.93C214.545 385.572 217.236 383.22 219.82 380.935L223.309 371.322L209.789 383.231ZM204.134 395.977L203.518 395.366C199.181 391.063 194.414 389.417 189.342 390.475C186.365 391.01 183.572 392.295 181.228 394.207L180.312 394.993V393.783C180.464 384.583 185.033 378.979 193.883 377.13C199.147 376.033 204.061 377.735 208.556 382.185L208.8 382.428L204.134 395.977ZM192.311 389.067C196.331 389.067 200.137 390.718 203.665 393.992L207.567 382.722C203.439 378.719 198.921 377.203 194.137 378.198C186.108 379.895 181.951 384.599 181.465 392.629C183.759 391.023 186.369 389.924 189.121 389.406C190.172 389.183 191.243 389.069 192.316 389.067H192.311Z" fill="#4670CF"/>
<path d="M302.015 333.295L277.819 338.356L277.547 338.26L277.485 338.43H277.434V338.509L272.464 352.244L276.106 369.903L263.1 372.623L256.88 342.722L232.458 347.811L226.718 361.568L244.587 445.884L244.287 446.704L269.767 441.587L274.89 427.45L274.511 427.309L270.089 406.138L270.016 405.77L282.586 403.198L289.818 436.249L289.524 437.063L314.314 432.127L319.403 418.035L319.68 417.979L302.015 333.295ZM273.691 352.329L277.909 340.68L283.677 368.326L277.265 369.66L273.691 352.329ZM227.928 361.653L232.554 348.88L249.885 431.974L249.653 431.889L245.339 443.803L227.928 361.653ZM268.89 440.575L246.091 445.149L250.722 432.364L273.273 427.659L273.38 428.185L268.89 440.575ZM269.778 404.617L267.369 393.087L287.324 388.925L282.586 402.005L269.778 404.617ZM283.626 402.553L288.189 389.96L294.93 422.265H294.873L290.547 434.208L283.626 402.553ZM313.432 431.092L291.311 435.497L295.863 422.927L318.063 418.295L313.432 431.092Z" fill="#4670CF"/>
<path d="M244.299 447.258C244.203 446.789 244.112 446.32 244.022 445.845L226.147 361.54L226.204 361.393L232.571 347.257H232.481H232.571L232.758 347.217L257.287 342.128L263.507 372.024L275.478 369.457L271.916 352.182L276.886 338.447L277.078 337.921L277.859 337.757L302.439 332.634C308.23 361.254 314.022 389.872 319.816 418.488L314.727 432.585L314.427 432.641L289.609 437.583L289.253 436.192L282.173 403.825L270.661 406.212L274.981 426.919C275.048 427.218 275.122 427.518 275.19 427.818L270.174 442.09L244.299 447.258ZM227.284 361.608L245.153 445.924V445.98L269.383 441.112L274.212 427.767L274.059 427.71L273.997 427.411L269.4 405.358L283.016 402.576L290.367 436.305V436.362L313.896 431.657L318.985 417.566H319.024L301.591 333.94L278.062 338.843L284.282 368.744L276.801 370.305L273.086 352.289L277.944 338.865H277.859L273.007 352.267L276.728 370.305L262.637 373.245L256.417 343.344L232.956 348.235L233.063 348.755L250.4 431.878L273.674 427.026L273.923 428.236L269.275 441.061L245.266 445.879L250.072 432.613L249.999 432.585L245.203 445.794L227.363 361.614L232.113 348.269L227.284 361.608ZM251.135 432.856L246.962 444.425L268.512 440.1L272.775 428.327L251.135 432.856ZM228.517 361.715L245.481 441.847L249.224 431.471L232.735 352.561L228.517 361.715ZM274.274 352.391L277.712 369.038L283.05 367.907L277.791 342.676L274.274 352.391ZM290.469 436.237L295.275 422.972H295.201L290.423 436.181L283.072 402.542L288.342 387.998L295.541 422.491L318.923 417.617L313.833 431.618L290.469 436.237ZM296.276 423.418L292.154 434.79L313.025 430.634L317.215 419.047L296.276 423.418ZM284.198 402.587L290.678 432.223L294.342 422.112L288.048 391.951L284.198 402.587ZM269.354 405.262L266.753 392.64L288.195 388.168L283.021 402.457L269.354 405.262ZM268.014 393.511L270.202 403.95L282.179 401.507L286.476 389.632L268.014 393.511Z" fill="#4670CF"/>
<path d="M341.343 325.091L316.814 330.208L316.842 330.344L316.616 330.259L311.606 344.101L311.759 344.158H311.668L329.356 428.168L329.062 428.988L353.835 424.063L358.958 409.927L358.72 409.842L358.986 409.785L341.343 325.091ZM312.85 344.101L317.204 332.068L334.371 414.349L330.113 426.104L312.85 344.101ZM352.998 423.051L330.882 427.45L335.491 414.693L357.691 410.062L352.998 423.051Z" fill="#4670CF"/>
<path d="M329.112 429.548L328.79 428.146L311.187 344.531L311.068 343.966L311.159 343.711L316.186 329.874V329.806H316.231L316.649 329.716H316.723L341.784 324.491L359.534 409.57L359.602 409.898L359.67 410.243L354.281 424.589L353.981 424.645L329.112 429.548ZM312.318 344.576L329.921 428.202V428.253L353.467 423.565L358.296 410.221H358.228L353.41 423.515L330.045 428.163L335.134 414.196L356.803 409.672L358.42 409.338L340.919 325.735L317.458 330.632L334.936 414.388L329.972 428.089L312.392 344.576H312.318ZM335.898 415.129L331.708 426.704L352.573 422.553L356.842 410.758L335.898 415.129ZM313.46 344.367L330.249 424.097L333.8 414.292L317.079 334.064L313.432 344.141V344.18L313.46 344.367ZM312.301 343.802H312.375L317.017 331.005L316.944 330.977L312.301 343.802Z" fill="#4670CF"/>
<path d="M246.821 297.236V297.191L290.423 288.596C292.481 283.058 294.538 277.52 296.592 271.983L296.943 260.951L317.017 256.28L329.955 282.082L371.505 273.3L378.748 255.952L378.867 255.669L378.782 255.522L311.928 139.727L270.055 147.904L269.637 147.977L259.967 170.98L260.94 171.387L259.967 170.98L243.914 297.768L246.821 297.236ZM288.846 286.758L247.878 294.844L254.313 280.227L293.98 272.486L288.846 286.758ZM318.736 255.008L324.549 240.045L335.1 263.014L329.711 276.891L318.736 255.008ZM369.729 271.513L330.927 279.549L336.932 264.083L376.243 256.41L369.729 271.513ZM323.927 238.66L323.774 238.598H323.893L323.927 238.66ZM299.188 184.144L310.859 209.867L298.419 212.293L299.188 184.144ZM322.796 238.79L316.808 254.159L297.016 258.768L297.497 243.721L322.796 238.79ZM261.935 171.659L269.241 154.333L253.787 276.546L246.736 292.215L261.935 171.659Z" fill="#4670CF"/>
<path d="M425.082 369.852C422.881 376.2 419.094 379.934 413.722 381.054C402.609 383.372 395.558 377.369 392.568 363.044C392.073 360.734 391.773 358.387 391.669 356.027C393.75 353.946 396.617 352.51 400.259 351.752C405.387 350.683 410.211 352.515 414.582 357.203L414.972 357.616C417.86 355.105 420.76 352.557 423.674 349.971C426.483 347.475 429.259 344.989 432.004 342.512H432.089L437.098 328.67L436.906 328.602C434.215 324.785 430.732 321.595 426.694 319.249C418.876 314.726 409.898 313.514 399.761 315.613C386.993 318.275 377.337 324.802 370.792 335.195C368.182 339.306 366.271 343.821 365.138 348.557C359.11 358.577 357.323 369.779 359.845 381.874C362.446 394.314 368.893 404.096 378.969 410.876C386.127 415.78 394.607 418.391 403.284 418.363C406.756 418.351 410.218 417.981 413.615 417.26C423.918 415.112 431.891 410.209 437.313 402.694C440.225 398.657 442.855 391.142 443.63 386.646L443.714 386.149H443.658C445.276 383.278 446.397 380.154 446.971 376.909L425.082 369.852ZM435.329 330.163L431.031 342.037H430.975C426.157 346.284 421.005 350.779 416.142 355.043L420.101 343.604L435.329 330.163ZM404.782 338.356C409.883 337.293 414.608 338.929 418.958 343.264L414.661 355.67C410.188 351.232 405.257 349.53 399.993 350.632C396.925 351.185 394.049 352.51 391.635 354.483C391.782 345.526 396.165 340.151 404.782 338.356ZM436.341 402.061C431.093 409.333 423.335 414.082 413.349 416.197C400.909 418.787 389.6 416.695 379.585 409.977C369.758 403.373 363.487 393.856 360.953 381.704C358.748 371.124 359.913 361.246 364.414 352.3C363.643 357.859 363.859 363.51 365.053 368.993C367.632 381.357 373.925 390.904 383.934 397.633C394.112 404.464 405.514 406.562 418.139 403.927C428.343 401.801 436.126 397.023 441.486 389.592C441.639 389.383 441.775 389.168 441.922 388.953C440.842 393.076 438.653 398.821 436.341 402.038V402.061Z" fill="#4670CF"/>
<path d="M403.256 418.94C394.469 418.962 385.883 416.318 378.63 411.357C368.418 404.493 361.909 394.62 359.274 382.016C356.735 369.824 358.522 358.509 364.595 348.376C365.75 343.612 367.679 339.069 370.307 334.93C376.894 324.457 386.761 317.791 399.62 315.105C409.843 312.973 419.038 314.217 426.943 318.803C428.616 319.811 430.209 320.946 431.71 322.196C433.947 324.046 435.979 326.131 437.771 328.416C435.887 333.339 434.002 338.26 432.117 343.18C429.397 345.634 426.677 348.071 424.031 350.423C421.136 352.991 418.207 355.563 415.317 358.074L414.921 358.419L414.158 357.582C409.923 353.058 405.275 351.272 400.344 352.295C396.951 353.008 394.192 354.342 392.195 356.253C392.31 358.501 392.605 360.736 393.078 362.937C394.536 369.949 397.036 374.976 400.429 377.882C403.821 380.789 408.232 381.642 413.592 380.529C418.738 379.454 422.425 375.801 424.545 369.677L424.721 369.174L447.571 376.525L447.486 376.989C446.918 380.199 445.825 383.294 444.252 386.149L444.144 386.749C443.336 391.419 440.655 398.968 437.732 403.023C432.23 410.651 424.161 415.621 413.706 417.804C410.27 418.539 406.769 418.92 403.256 418.94ZM365.025 349.807C359.506 359.471 357.934 370.226 360.343 381.789C362.916 394.111 369.272 403.752 379.241 410.453C386.313 415.291 394.687 417.87 403.256 417.849C406.692 417.835 410.118 417.469 413.479 416.758C423.658 414.637 431.506 409.808 436.844 402.406C439.632 398.533 442.199 391.351 443.03 386.788L442.465 389.05C441.407 393.144 439.185 399.064 436.81 402.378C431.484 409.763 423.635 414.581 413.491 416.695C400.92 419.319 389.419 417.204 379.309 410.407C369.362 403.718 363.012 394.094 360.445 381.795C358.217 371.108 359.399 361.088 363.951 352.012L365.025 349.807ZM363.515 355.535C360.241 363.565 359.557 372.301 361.485 381.546C363.996 393.557 370.188 402.955 379.891 409.48C389.753 416.102 400.971 418.166 413.253 415.61C423.126 413.546 430.748 408.875 435.917 401.716C437.709 399.228 439.417 395.191 440.571 391.64C435.216 398.137 427.723 402.429 418.274 404.402C405.546 407.06 393.897 404.911 383.651 398.024C373.569 391.238 367.14 381.495 364.544 369.044C363.586 364.609 363.239 360.064 363.515 355.535ZM365.415 349.134L364.952 352.323C364.194 357.818 364.41 363.404 365.591 368.823C368.124 380.992 374.4 390.509 384.251 397.097C394.242 403.809 405.608 405.901 418.043 403.317C428.057 401.224 435.804 396.475 441.051 389.18C441.142 389.056 441.226 388.931 441.311 388.801L442.923 386.466H442.838L443.16 385.9C444.67 383.221 445.74 380.317 446.333 377.3L425.411 370.514C423.149 376.734 419.23 380.438 413.824 381.563C408.119 382.756 403.38 381.784 399.733 378.685C396.086 375.586 393.513 370.384 392.026 363.135C391.522 360.794 391.218 358.414 391.115 356.021V355.784L391.285 355.614C393.445 353.46 396.431 351.973 400.151 351.192C405.472 350.062 410.449 351.961 414.955 356.774L419.637 343.248L436.239 328.614C433.621 325 430.278 321.972 426.423 319.725C418.761 315.28 409.826 314.07 399.846 316.151C387.282 318.775 377.657 325.277 371.228 335.49C368.651 339.551 366.761 344.01 365.636 348.687L365.574 348.846L365.415 349.134ZM414.904 356.802H414.933V356.83C417.686 354.433 420.48 351.978 423.234 349.53C425.303 347.698 427.412 345.815 429.527 343.909C427.463 345.73 425.348 347.579 423.234 349.434C420.943 351.441 418.653 353.449 416.448 355.411L414.904 356.802ZM420.559 343.898L417.324 353.256C419.055 351.73 420.819 350.186 422.583 348.642C425.286 346.273 427.989 343.904 430.596 341.602L434.079 331.989L420.559 343.898ZM436.392 328.845L431.563 342.179C431.592 342.157 431.618 342.133 431.642 342.105L431.687 342.072L436.392 328.919C436.382 328.894 436.37 328.869 436.358 328.845H436.392ZM414.904 356.643L414.288 356.033C409.951 351.73 405.178 350.084 400.118 351.142C397.141 351.681 394.35 352.965 392.003 354.874L391.081 355.66V354.449C391.229 345.249 395.803 339.646 404.653 337.797L404.76 338.362L404.653 337.797C409.911 336.7 414.831 338.402 419.321 342.886L419.564 343.129L414.904 356.643ZM403.081 349.739C407.101 349.739 410.907 351.385 414.435 354.664L418.342 343.389C414.209 339.391 409.691 337.87 404.907 338.865C396.877 340.562 392.727 345.266 392.235 353.296C394.53 351.691 397.14 350.592 399.891 350.073C400.936 349.853 402.001 349.741 403.069 349.739H403.081Z" fill="#4670CF"/>
<path d="M539.622 376.134L521.957 291.457L497.761 296.512L497.484 296.416L497.427 296.586H497.376V296.665L492.4 310.405L496.042 328.065L483.036 330.779L476.816 300.877L452.394 305.966L452.213 305.904L446.671 319.73L464.54 404.046L464.246 404.866L489.691 399.776L494.82 385.64L494.436 385.504L490.048 364.367L489.957 363.926L502.516 361.365L509.743 394.41L509.449 395.224L534.244 390.288L539.333 376.202L539.622 376.134ZM493.627 310.485L497.845 298.836L503.613 326.481L497.201 327.822L493.627 310.485ZM447.864 319.815L452.49 307.041L469.827 390.13L469.595 390.045L465.275 401.965L447.864 319.815ZM488.832 398.73L466.033 403.311L470.664 390.525L493.209 385.821L493.316 386.341L488.832 398.73ZM489.714 362.778L487.311 351.249L507.26 347.087L502.55 360.166L489.714 362.778ZM503.568 360.709L508.126 348.122L514.866 380.426H514.815L510.467 392.346L503.568 360.709ZM533.368 389.248L511.253 393.652L515.804 381.088L537.999 376.457L533.368 389.248Z" fill="#4670CF"/>
<path d="M464.303 405.403C464.19 404.939 464.071 404.476 463.958 404.006L446.089 319.696L446.14 319.549L452.417 305.413H452.513L452.694 305.373L477.224 300.284L483.444 330.185L495.414 327.612L491.852 310.338C493.481 305.603 495.107 300.868 496.732 296.133L497.015 296.077L497.801 295.913L522.376 290.784L540.267 376.559L534.652 390.757L534.352 390.82L509.41 395.784C509.33 395.315 509.257 394.84 509.178 394.371L502.098 361.998L490.602 364.367C492.242 371.338 493.884 378.312 495.528 385.289L490.11 400.223L464.303 405.403ZM447.22 319.77L465.089 404.085V404.136L489.313 399.273L494.148 385.923L493.995 385.866L493.933 385.572L489.33 363.519L502.952 360.743L510.331 394.473V394.523L533.832 389.813L538.921 375.728H538.961L521.533 292.102L498.027 297.004L504.247 326.906L496.766 328.466L493.051 310.445L497.914 297.027H497.823L492.972 310.422L496.692 328.466L482.607 331.401L476.387 301.505L452.926 306.396L470.37 390.011L493.639 385.154L493.888 386.369L489.245 399.188L465.196 404.018L469.997 390.752H469.929L465.14 403.95L447.299 319.775L452.123 306.459L452.049 306.43L447.22 319.77ZM471.071 391.018L466.876 402.61L488.42 398.278L492.683 386.511L471.071 391.018ZM448.453 319.877L465.417 400.008L469.188 389.632C463.647 363.063 458.104 336.486 452.558 309.902L448.453 319.877ZM494.216 310.553L497.648 327.2L502.992 326.069L497.727 300.838L494.216 310.553ZM510.41 394.393L515.217 381.128H515.143L510.36 394.337L503.009 360.703L508.273 346.154L515.471 380.647L538.853 375.767L533.764 389.768L533.464 389.83L510.41 394.393ZM516.212 381.58L512.096 392.946L532.961 388.79L537.157 377.209L516.212 381.58ZM504.134 360.748L510.62 390.379L514.278 380.268L507.985 350.101L504.134 360.748ZM489.291 363.423L486.667 350.825L508.109 346.352L502.935 360.641L489.291 363.423ZM487.956 351.673L490.139 362.134L502.115 359.691L506.413 347.816L487.956 351.673Z" fill="#4670CF"/>
<path d="M512.023 227.526L511.96 227.469L451.456 168.899L480.029 107.117L437.523 115.282L419.598 154.203L413.033 119.981L377.562 126.767L377.596 126.942L370.03 148.361L393.677 270.032L394.084 272.101L428.826 264.281L436.517 242.488V242.42L434.758 233.254L460.809 257.682L504.915 249.698L511.847 227.961L512.023 227.526ZM372.207 148.548L378.382 131.058L400.887 248.346L394.769 266.311L372.207 148.548ZM427.226 262.505L395.95 269.545L402.94 248.889L434.13 242.901L427.226 262.505ZM434.096 229.754L430.964 213.418L434.696 205.252L468.623 235.567L461.725 255.143L434.096 229.754ZM503.241 247.962L463.924 255.075L470.608 236.132L508.918 230.161L503.241 247.962Z" fill="#4670CF"/>
<path d="M235.619 246.752C232.916 232.894 225.407 224.667 213.091 222.069C218.745 215.284 220.366 205.761 217.954 193.502C213.517 170.752 195.699 162.421 164.501 168.509L120.689 177.059L114.203 194.299L138.959 320.29V320.431L139.129 320.397C147.989 318.955 156.946 317.366 165.767 315.676C187.47 311.514 193.707 309.914 195.737 309.393C208.963 306.001 215.601 304.304 219.158 301.997C231.395 294.081 235.217 277.388 235.975 262.635C236.891 257.886 236.772 252.591 235.619 246.752ZM199.769 253.288C200.357 256.304 200.055 258.909 198.864 261.103C197.852 256.845 195.663 253.984 192.186 252.367C188.522 250.67 183.393 250.433 176.918 251.694L172.824 252.491L171.19 244.083L177.41 242.873C190.461 240.324 197.914 243.794 199.769 253.283V253.288ZM172.202 219.044L167.232 220.175L164.207 204.687L166.095 204.319C175.109 202.561 179.949 204.992 181.312 211.976C181.402 212.445 181.476 212.909 181.538 213.356C179.819 216.164 176.707 218.06 172.202 219.044ZM196.845 263.665C195.027 265.379 192.761 266.545 190.308 267.029L176.223 269.777L173.164 254.103L177.252 253.305C183.359 252.112 188.154 252.299 191.496 253.871C194.679 255.352 196.619 258.095 197.433 262.251C197.478 262.494 197.518 262.737 197.552 262.969C197.329 263.217 197.093 263.453 196.845 263.676V263.665ZM165.309 194.028C175.341 192.068 181.142 195.112 182.714 203.16C183.276 205.629 183.265 208.194 182.68 210.658C180.86 203.55 175.194 200.87 165.784 202.702L163.229 203.2L161.577 194.729L165.309 194.028ZM116.386 194.486L121.515 181.283L144.698 300.21L139.915 314.669C132.077 274.608 124.234 234.547 116.386 194.486ZM218.05 300.227C214.782 302.342 208.25 304.016 195.245 307.352C187.487 309.342 179.225 311.011 165.383 313.606C158.795 314.844 150.721 316.309 141.453 317.875L146.576 301.256L199.164 290.993C216.504 287.6 227.814 280.947 233.091 271.032C231.463 282.715 227.306 294.25 218.05 300.227Z" fill="#4670CF"/>
<path d="M359.432 147.881L355.191 151.59C352.599 153.867 349.271 155.13 345.822 155.147C341.899 155.156 338.127 153.635 335.308 150.906C332.49 148.177 330.847 144.457 330.729 140.535C330.662 138.404 331.067 136.285 331.917 134.329C332.767 132.374 334.039 130.631 335.643 129.226L340.201 125.641C338.559 126.858 337.225 128.442 336.305 130.267C335.393 132.322 334.936 134.55 334.965 136.798C335.083 140.72 336.726 144.441 339.546 147.17C342.365 149.899 346.139 151.42 350.062 151.409C353.509 151.403 356.837 150.15 359.432 147.881Z" fill="#F6B41F"/>
<path d="M359.432 147.881L355.191 151.59C352.599 153.867 349.271 155.13 345.822 155.147C341.899 155.156 338.127 153.635 335.308 150.906C332.49 148.177 330.847 144.457 330.729 140.535C330.662 138.404 331.067 136.285 331.917 134.329C332.767 132.374 334.039 130.631 335.643 129.226L340.201 125.641C338.559 126.858 337.225 128.442 336.305 130.267C335.35 132.308 334.891 134.546 334.965 136.798C335.366 144.494 343.531 151.449 350.062 151.409C351.933 151.36 353.781 150.987 355.525 150.307C356.949 149.712 358.268 148.893 359.432 147.881Z" fill="#F6B41F"/>
<path d="M347.829 123.397C351.752 123.39 355.524 124.916 358.34 127.648C361.157 130.38 362.796 134.103 362.909 138.025C362.974 139.945 362.652 141.859 361.965 143.653C361.277 145.447 360.236 147.085 358.905 148.471C357.573 149.856 355.978 150.96 354.212 151.719C352.447 152.477 350.547 152.874 348.626 152.885C344.702 152.893 340.929 151.37 338.11 148.641C335.291 145.911 333.647 142.19 333.528 138.268C333.464 136.346 333.785 134.43 334.474 132.634C335.163 130.838 336.205 129.199 337.538 127.812C338.871 126.426 340.468 125.321 342.236 124.562C344.004 123.804 345.905 123.408 347.829 123.397Z" fill="#F9D935"/>
<path d="M347.773 126.597C350.881 126.593 353.868 127.801 356.099 129.964C358.33 132.128 359.63 135.076 359.721 138.183C359.77 139.703 359.514 141.217 358.969 142.637C358.424 144.056 357.6 145.352 356.546 146.448C355.492 147.544 354.229 148.418 352.832 149.019C351.435 149.619 349.932 149.934 348.412 149.945C345.303 149.952 342.314 148.747 340.08 146.586C337.846 144.424 336.542 141.477 336.447 138.37C336.397 136.848 336.652 135.331 337.198 133.91C337.744 132.488 338.569 131.19 339.625 130.093C340.681 128.995 341.946 128.121 343.345 127.52C344.744 126.92 346.25 126.606 347.773 126.597Z" fill="#F6B41F"/>
<path d="M367.733 182.193L363.492 185.902C360.896 188.171 357.57 189.429 354.122 189.448C350.199 189.457 346.426 187.936 343.607 185.207C340.788 182.479 339.144 178.758 339.024 174.836C338.959 172.706 339.366 170.587 340.215 168.632C341.065 166.677 342.336 164.933 343.938 163.527L348.502 159.942C346.854 161.166 345.518 162.76 344.6 164.596C343.692 166.652 343.236 168.879 343.265 171.127C343.385 175.048 345.028 178.767 347.846 181.496C350.664 184.224 354.435 185.746 358.358 185.738C361.807 185.721 365.135 184.463 367.733 182.193Z" fill="#F6B41F"/>
<path d="M367.733 182.193L363.492 185.902C360.896 188.171 357.57 189.429 354.122 189.448C350.199 189.457 346.426 187.936 343.607 185.207C340.788 182.479 339.144 178.758 339.024 174.836C338.959 172.706 339.366 170.587 340.215 168.632C341.065 166.677 342.336 164.933 343.938 163.527L348.502 159.942C346.854 161.166 345.518 162.76 344.6 164.596C343.647 166.638 343.19 168.875 343.265 171.127C343.661 178.817 351.832 185.778 358.363 185.738C360.234 185.678 362.079 185.295 363.82 184.608C365.245 184.018 366.567 183.203 367.733 182.193Z" fill="#F6B41F"/>
<path d="M356.125 157.709C360.048 157.702 363.819 159.227 366.636 161.957C369.454 164.688 371.095 168.41 371.211 172.331C371.273 174.25 370.95 176.162 370.261 177.954C369.572 179.747 368.532 181.383 367.2 182.766C365.869 184.149 364.274 185.252 362.51 186.01C360.746 186.767 358.847 187.163 356.927 187.175C353.004 187.184 349.232 185.663 346.412 182.934C343.593 180.205 341.949 176.485 341.83 172.563C341.766 170.642 342.088 168.728 342.777 166.934C343.466 165.14 344.507 163.502 345.84 162.117C347.173 160.732 348.769 159.629 350.536 158.871C352.302 158.114 354.203 157.719 356.125 157.709Z" fill="#F9D935"/>
<path d="M356.096 160.903C359.206 160.898 362.196 162.106 364.428 164.271C366.661 166.436 367.96 169.387 368.05 172.495C368.099 174.015 367.844 175.529 367.299 176.949C366.753 178.368 365.929 179.664 364.875 180.76C363.821 181.857 362.559 182.731 361.162 183.331C359.765 183.932 358.262 184.246 356.741 184.257C353.626 184.273 350.627 183.071 348.386 180.908C346.144 178.744 344.836 175.79 344.742 172.676C344.692 171.152 344.948 169.633 345.496 168.21C346.044 166.786 346.871 165.487 347.93 164.389C348.989 163.292 350.257 162.417 351.66 161.819C353.063 161.22 354.571 160.909 356.096 160.903Z" fill="#F6B41F"/>
<path d="M332.409 315.97L328.168 319.679C325.568 321.957 322.232 323.217 318.775 323.225C314.851 323.235 311.078 321.714 308.259 318.986C305.439 316.257 303.795 312.535 303.677 308.613C303.611 306.482 304.018 304.362 304.868 302.407C305.719 300.451 306.992 298.708 308.597 297.304L313.155 293.713C311.509 294.938 310.174 296.532 309.259 298.367C308.347 300.422 307.89 302.65 307.918 304.898C308.036 308.82 309.68 312.542 312.5 315.271C315.319 317.999 319.092 319.52 323.016 319.51C326.472 319.501 329.807 318.244 332.409 315.97Z" fill="#F6B41F"/>
<path d="M332.409 315.97L328.168 319.679C325.568 321.957 322.232 323.217 318.775 323.225C314.851 323.235 311.078 321.714 308.259 318.986C305.439 316.257 303.795 312.535 303.677 308.613C303.611 306.482 304.018 304.362 304.868 302.407C305.719 300.451 306.992 298.708 308.597 297.304L313.155 293.713C311.509 294.938 310.174 296.532 309.259 298.367C308.304 300.408 307.845 302.646 307.918 304.898C308.32 312.594 316.485 319.549 323.016 319.51C324.888 319.449 326.736 319.066 328.479 318.379C329.91 317.794 331.238 316.98 332.409 315.97Z" fill="#F6B41F"/>
<path d="M320.806 291.485C324.731 291.481 328.503 293.008 331.32 295.742C334.136 298.476 335.774 302.201 335.886 306.125C335.947 308.043 335.623 309.953 334.933 311.744C334.244 313.534 333.202 315.169 331.871 316.55C330.54 317.932 328.946 319.033 327.182 319.789C325.419 320.545 323.522 320.94 321.603 320.951C317.679 320.962 313.906 319.441 311.086 316.712C308.267 313.983 306.623 310.262 306.505 306.34C306.442 304.419 306.765 302.505 307.455 300.71C308.144 298.916 309.186 297.278 310.519 295.894C311.853 294.509 313.45 293.405 315.216 292.648C316.983 291.891 318.884 291.496 320.806 291.485Z" fill="#F9D935"/>
<path d="M320.744 294.686C323.852 294.68 326.841 295.887 329.073 298.051C331.306 300.215 332.606 303.164 332.697 306.272C332.746 307.792 332.491 309.306 331.946 310.726C331.4 312.145 330.576 313.441 329.522 314.537C328.469 315.633 327.206 316.507 325.809 317.108C324.412 317.708 322.909 318.023 321.388 318.034C318.279 318.041 315.289 316.835 313.054 314.673C310.82 312.51 309.517 309.561 309.423 306.453C309.373 304.932 309.629 303.416 310.174 301.995C310.72 300.574 311.545 299.277 312.6 298.18C313.655 297.083 314.919 296.209 316.318 295.609C317.717 295.009 319.222 294.695 320.744 294.686Z" fill="#F6B41F"/>
</svg>
